<?xml version="1.0" encoding="UTF-8" standalone="no"?>
<!-- Created with Inkscape (http://www.inkscape.org/) -->

<svg
   xmlns:dc="http://purl.org/dc/elements/1.1/"
   xmlns:cc="http://creativecommons.org/ns#"
   xmlns:rdf="http://www.w3.org/1999/02/22-rdf-syntax-ns#"
   xmlns:svg="http://www.w3.org/2000/svg"
   xmlns="http://www.w3.org/2000/svg"
   xmlns:xlink="http://www.w3.org/1999/xlink"
   xmlns:sodipodi="http://sodipodi.sourceforge.net/DTD/sodipodi-0.dtd"
   xmlns:inkscape="http://www.inkscape.org/namespaces/inkscape"
   width="744.09448819"
   height="1052.3622047"
   id="svg2"
   version="1.1"
   inkscape:version="0.47 r22583"
   sodipodi:docname="bug.svg">
  <defs
     id="defs4">
    <linearGradient
       id="linearGradient3687"
       inkscape:collect="always">
      <stop
         id="stop3689"
         offset="0"
         style="stop-color:#8e0000;stop-opacity:1" />
      <stop
         id="stop3691"
         offset="1"
         style="stop-color:#ff5555;stop-opacity:1" />
    </linearGradient>
    <linearGradient
       id="linearGradient3681"
       inkscape:collect="always">
      <stop
         id="stop3683"
         offset="0"
         style="stop-color:#910000;stop-opacity:1" />
      <stop
         id="stop3685"
         offset="1"
         style="stop-color:#ff5555;stop-opacity:1" />
    </linearGradient>
    <linearGradient
       inkscape:collect="always"
       id="linearGradient3651">
      <stop
         style="stop-color:#ff0000;stop-opacity:1"
         offset="0"
         id="stop3653" />
      <stop
         style="stop-color:#ffcc00;stop-opacity:1"
         offset="1"
         id="stop3655" />
    </linearGradient>
    <linearGradient
       inkscape:collect="always"
       id="linearGradient3643">
      <stop
         style="stop-color:#ff0000;stop-opacity:1"
         offset="0"
         id="stop3645" />
      <stop
         style="stop-color:#ffcc00;stop-opacity:1"
         offset="1"
         id="stop3647" />
    </linearGradient>
    <linearGradient
       id="linearGradient3613">
      <stop
         style="stop-color:#000000;stop-opacity:1;"
         offset="0"
         id="stop3615" />
      <stop
         style="stop-color:#ffffff;stop-opacity:1;"
         offset="1"
         id="stop3617" />
    </linearGradient>
    <linearGradient
       id="linearGradient3605">
      <stop
         style="stop-color:#000000;stop-opacity:1;"
         offset="0"
         id="stop3607" />
      <stop
         style="stop-color:#ffffff;stop-opacity:1;"
         offset="1"
         id="stop3609" />
    </linearGradient>
    <inkscape:perspective
       sodipodi:type="inkscape:persp3d"
       inkscape:vp_x="0 : 526.18109 : 1"
       inkscape:vp_y="0 : 1000 : 0"
       inkscape:vp_z="744.09448 : 526.18109 : 1"
       inkscape:persp3d-origin="372.04724 : 350.78739 : 1"
       id="perspective10" />
    <inkscape:perspective
       id="perspective2884"
       inkscape:persp3d-origin="0.5 : 0.33333333 : 1"
       inkscape:vp_z="1 : 0.5 : 1"
       inkscape:vp_y="0 : 1000 : 0"
       inkscape:vp_x="0 : 0.5 : 1"
       sodipodi:type="inkscape:persp3d" />
    <linearGradient
       inkscape:collect="always"
       xlink:href="#linearGradient3605"
       id="linearGradient3631"
       gradientUnits="userSpaceOnUse"
       x1="394.96964"
       y1="572.40021"
       x2="361.34497"
       y2="486.79169"
       gradientTransform="translate(-148.49242,256.76139)" />
    <linearGradient
       inkscape:collect="always"
       xlink:href="#linearGradient3613"
       id="linearGradient3633"
       gradientUnits="userSpaceOnUse"
       x1="393.45441"
       y1="576.79242"
       x2="361.5975"
       y2="487.86401"
       gradientTransform="translate(-148.49242,256.76139)" />
    <linearGradient
       inkscape:collect="always"
       xlink:href="#linearGradient3605"
       id="linearGradient3637"
       gradientUnits="userSpaceOnUse"
       gradientTransform="matrix(0.95056211,0.31053448,-0.31053448,0.95056211,23.25574,-87.483242)"
       x1="394.96964"
       y1="572.40021"
       x2="361.34497"
       y2="486.79169" />
    <linearGradient
       inkscape:collect="always"
       xlink:href="#linearGradient3613"
       id="linearGradient3641"
       gradientUnits="userSpaceOnUse"
       gradientTransform="matrix(0.94503222,-0.3269772,0.3269772,0.94503222,-314.66511,188.72928)"
       x1="393.45441"
       y1="576.79242"
       x2="361.5975"
       y2="487.86401" />
    <linearGradient
       inkscape:collect="always"
       xlink:href="#linearGradient3687"
       id="linearGradient3649"
       x1="433.7431"
       y1="606.4068"
       x2="384.32993"
       y2="550.76465"
       gradientUnits="userSpaceOnUse"
       gradientTransform="matrix(0.99797502,0.06360712,-0.06360712,0.99797502,-127.61375,-6.9583006)" />
    <linearGradient
       inkscape:collect="always"
       xlink:href="#linearGradient3681"
       id="linearGradient3657"
       x1="390.06836"
       y1="490.84491"
       x2="442.46286"
       y2="432.51819"
       gradientUnits="userSpaceOnUse"
       gradientTransform="translate(-162.63456,19.192898)" />
    <linearGradient
       inkscape:collect="always"
       xlink:href="#linearGradient3605"
       id="linearGradient3673"
       gradientUnits="userSpaceOnUse"
       gradientTransform="matrix(0.95056211,0.31053448,-0.31053448,0.95056211,335.39287,-86.254732)"
       x1="394.96964"
       y1="572.40021"
       x2="361.34497"
       y2="486.79169" />
    <linearGradient
       inkscape:collect="always"
       xlink:href="#linearGradient3651"
       id="linearGradient3675"
       gradientUnits="userSpaceOnUse"
       x1="337.54044"
       y1="526.20026"
       x2="445.49332"
       y2="429.48773"
       gradientTransform="translate(149.50258,20.421409)" />
    <linearGradient
       inkscape:collect="always"
       xlink:href="#linearGradient3613"
       id="linearGradient3677"
       gradientUnits="userSpaceOnUse"
       gradientTransform="matrix(0.94503222,-0.3269772,0.3269772,0.94503222,-2.5279797,189.95779)"
       x1="393.45441"
       y1="576.79242"
       x2="361.5975"
       y2="487.86401" />
    <linearGradient
       inkscape:collect="always"
       xlink:href="#linearGradient3643"
       id="linearGradient3679"
       gradientUnits="userSpaceOnUse"
       x1="433.7431"
       y1="606.4068"
       x2="384.32993"
       y2="550.76465"
       gradientTransform="translate(149.50258,20.421409)" />
  </defs>
  <sodipodi:namedview
     id="base"
     pagecolor="#ffffff"
     bordercolor="#666666"
     borderopacity="1.0"
     inkscape:pageopacity="0.0"
     inkscape:pageshadow="2"
     inkscape:zoom="0.98994949"
     inkscape:cx="495.86003"
     inkscape:cy="419.50337"
     inkscape:document-units="px"
     inkscape:current-layer="layer1"
     showgrid="false"
     inkscape:window-width="1440"
     inkscape:window-height="825"
     inkscape:window-x="0"
     inkscape:window-y="24"
     inkscape:window-maximized="1"
     inkscape:snap-global="false" />
  <metadata
     id="metadata7">
    <rdf:RDF>
      <cc:Work
         rdf:about="">
        <dc:format>image/svg+xml</dc:format>
        <dc:type
           rdf:resource="http://purl.org/dc/dcmitype/StillImage" />
        <dc:title></dc:title>
      </cc:Work>
    </rdf:RDF>
  </metadata>
  <g
     inkscape:label="Layer 1"
     inkscape:groupmode="layer"
     id="layer1">
    <image
       y="-1067.3622"
       x="135.00076"
       id="image2886"
       height="289.52454"
       width="208.81956"
       xlink:href="file:///home/jared/Downloads/pte_spkm.jpg"
       style="opacity:1"
       transform="matrix(0,1,-1,0,0,0)" />
    <path
       style="fill:#000000;stroke:#000000;stroke-width:0.36335158px;stroke-linecap:butt;stroke-linejoin:miter;stroke-opacity:1"
       d="m 280.65907,513.50499 c 0.53961,-2.6943 28.82999,0.46316 46.19756,-4.15259 l 0.3893,-2.07629 c 8.24737,-4.0953 15.4387,-11.09467 24.91554,-11.80893 l -0.77861,-1.68699 c -9.43064,1.20877 -18.01505,6.12415 -25.30484,11.9387 l -2.85491,-1.03815 c -9.88224,4.5527 -29.93325,1.68699 -44.89987,6.61819 -5.67495,-0.27221 -1.44081,8.71647 -3.11444,15.70198 -2.72514,1.28037 -5.45028,1.24591 -8.17541,1.55722 -0.61726,-7.30591 -6.40193,-12.67404 -15.31268,-16.8699 -0.007,-5.25743 6.43533,-14.70717 -0.12976,-15.70197 -4.75612,-2.91304 -33.35206,-0.52834 -50.09062,-0.77861 -8.61502,-7.19549 -16.0385,-10.26971 -22.5797,-8.82425 l 0.90838,1.94652 c 5.55211,-3.42661 12.88363,3.11155 20.11411,9.08379 l 1.03814,2.72514 c 16.12553,-2.37731 31.67729,-1.8857 47.49524,-2.72514 1.1518,3.07522 -2.52232,7.35691 -5.3205,11.41962 -15.77435,-3.84688 -31.29689,-7.81546 -54.50274,-3.89305 -8.69549,-9.21909 -10.55294,-23.1745 -15.57221,-22.70948 l -1.55722,0.64885 c -3.7879,-2.73624 -34.97204,24.96779 -55.54088,40.87705 l 0.3893,1.81676 c -14.15585,-0.15083 -25.96199,-5.00111 -45.54871,5.7098 l 1.16791,2.0763 c 14.69743,-9.18637 29.73521,-7.14116 44.77011,-5.19073 l 1.42745,1.03814 c 16.43521,-15.58651 50.64402,-46.42045 52.94551,-43.34265 l 8.04565,21.15225 c -20.40776,6.39861 -44.78858,22.58948 -49.312,42.04497 1.25754,1.8847 4.18097,1.02914 6.35865,1.68699 -1.38567,1.64078 -4.20395,0.67589 -5.70981,1.81676 -2.58455,10.91582 28.44404,38.28094 50.99899,42.95334 -2.68188,10.75293 -5.36376,20.11691 -8.04564,24.00716 l 0.77861,1.29769 c -0.86575,-0.76225 -1.26499,0.34648 -2.08881,-0.46601 -4.66558,-4.60147 -9.97253,-9.40683 -15.67646,-14.25869 -11.55363,-9.82772 -24.73601,-19.84627 -37.51608,-28.74772 l -1.94653,1.29768 c -16.10017,1.28006 -32.90854,8.04871 -47.75477,-0.38931 l -0.38931,1.55722 c 10.52069,8.02184 29.86232,3.91489 48.40362,0.90838 -0.56369,1.68695 4.86373,5.01534 8.17918,7.13245 36.84435,23.52739 42.98782,38.09352 52.03337,36.33997 4.97445,-1.94428 0.60558,-4.32561 14.92337,-26.73229 17.80666,3.71621 32.91115,-1.12445 48.79292,-3.50375 2.45688,3.93314 6.94824,8.60609 5.96935,11.28985 -0.5339,2.21907 -4.93349,-2.86291 -54.50274,-2.72513 l -0.12976,1.94653 c -6.82878,5.3864 -14.4699,9.59943 -24.39647,10.51124 l 1.81676,1.55722 c 12.17136,-0.0765 17.1054,-5.68748 23.74762,-9.99217 l 0.51907,1.29768 c 33.90297,-1.1034 54.11315,1.97966 57.61718,-1.55722 3.50404,-3.53687 -0.89039,-9.97418 -1.55722,-15.1829 10.15593,-3.40488 15.45036,-9.05352 16.61036,-16.61036 4.85122,0.15089 5.38402,2.22109 7.3968,3.63352 0.68226,5.73084 -1.44811,15.57244 3.24421,15.44244 10.69179,5.50782 29.35984,7.02058 40.48775,13.62568 l 1.42745,-0.77861 18.29734,19.98434 2.0763,-1.68699 -18.68665,-20.24387 0.90838,-1.81676 c -15.45743,-7.09712 -38.08869,-7.80358 -42.04497,-11.54939 2.65144,0.15797 -0.0508,-2.81962 3.37398,-9.60287 9.9139,-0.51443 20.84232,-0.21435 16.55905,-13.99406 5.66797,0.27755 7.11492,6.24445 10.64417,6.14792 3.44068,0.0166 4.87057,-2.20095 6.14793,-4.588 l 1.8352,0.4588 c -1.14666,2.16709 -1.9293,4.12617 -1.3764,5.32209 -1.78876,1.96661 -5.80302,4.37832 -4.31273,5.68913 -3.03129,3.34709 -10.07768,8.25561 -8.99249,10.00185 -8.41134,9.05367 -18.88033,14.6399 -16.14978,15.8745 -2.87617,2.56891 -8.48709,4.14337 -8.62545,7.70785 -3.12461,2.81271 -9.86588,4.66097 -9.35953,8.44193 -2.9975,2.50811 -9.78305,4.2045 -8.9925,7.52433 -2.65125,2.25431 -9.04706,4.09256 -7.70785,6.79025 -2.08762,1.74434 -5.71215,2.14386 -6.05617,5.41385 -2.62549,1.73063 -6.72028,5.04543 -4.86328,6.69849 1.81738,1.61779 6.27037,-1.64439 7.24905,-4.49624 3.26173,0.77966 5.09679,-3.42401 5.68912,-5.7809 3.74574,1.7076 4.65809,-4.27543 6.88201,-6.69848 4.89209,0.84626 5.84148,-5.75481 8.71722,-8.71721 3.18101,2.3063 6.36203,-5.04852 9.54305,-8.16666 3.12876,0.8067 5.81417,-5.03692 8.71721,-7.61609 2.62171,1.40702 11.01122,-10.64417 16.51682,-15.96626 3.22534,0.25037 5.99669,-6.76314 8.9925,-10.18537 2.5344,-0.0261 3.13856,-3.5266 4.588,-5.50561 3.39127,-1.21073 3.38445,-4.41026 3.11985,-6.42321 4.50821,1.05325 6.59352,0.65275 8.71721,0.27528 0.47088,3.23816 -1.17766,7.1828 3.30336,9.08425 1.89314,1.43255 4.4705,2.08311 8.07489,1.55992 2.87038,0.0889 5.88269,1.17138 8.5337,-0.27528 -2.90574,-1.53823 -5.81148,-0.98246 -8.71721,-1.19288 -2.16777,-1.33857 -4.56635,-1.29229 -6.97377,-1.19288 -0.69174,-3.79275 -2.57777,-3.4563 -3.39513,-8.90073 l 2.38576,-1.10112 c 5.00228,3.41672 7.66871,1.2274 10.27714,-1.10112 l -0.9176,-1.65169 c -2.39013,1.45937 -4.6131,2.08301 -6.51497,1.10112 2.33056,-2.32339 2.46202,-5.08661 2.38576,-7.89137 -1.3802,2.5159 -2.99372,3.63189 -4.86329,3.21161 2.12265,-2.11709 2.3401,-4.67384 1.28465,-7.52433 3.40886,-1.20226 5.25799,0.9749 7.24905,2.84456 -0.62555,-1.33143 -0.38983,-1.92465 -2.56929,-4.58801 1.51838,0.0525 2.63645,0.90562 3.67041,1.92697 -0.84087,-5.90919 -5.42529,-6.37321 -8.71722,-8.71722 1.33329,-1.57145 3.11105,-2.88891 6.14793,-3.48688 0.98282,1.5253 2.17514,2.84109 4.12921,3.39512 0.0618,3.24792 0.0376,6.54745 1.28464,9.08426 2.21058,-3.95757 0.3766,-7.54745 0.18352,-11.2865 -1.10913,-1.4714 -2.93455,-2.62445 -6.23969,-3.11984 -2.50687,0.37448 -4.94995,1.13168 -6.97377,4.40448 -3.19742,-1.43091 -6.56047,-1.86804 -10.00185,-1.8352 1.63282,-3.70156 0.0386,-6.19299 -2.20224,-8.44193 -1.1435,-2.27043 -1.60942,-5.89601 -3.85393,-5.96441 -2.50811,-3.67041 -5.92989,-13.1274 -7.52433,-11.01122 -4.46566,-5.9644 -10.48226,-18.64956 -13.39698,-17.89322 -2.29168,-3.10397 -3.88297,-10.64371 -6.88201,-9.26777 -2.3542,-3.42835 -2.98305,-11.5398 -7.06553,-10.27713 -2.72179,-3.09052 -3.68898,-11.44487 -8.16665,-9.26778 -2.50782,-2.2337 -3.76154,-8.22971 -7.52433,-6.69849 -1.98813,-2.0799 -3.36939,-7.80107 -5.96441,-6.23969 -2.05243,-4.41517 -4.06244,-7.85464 -5.87264,-6.69849 -2.0019,3.29817 1.30397,6.55446 3.85392,8.90074 -1.14791,2.82957 3.85032,4.00806 6.14793,5.78088 -0.98559,3.39768 5.36115,4.04574 8.07489,6.05617 -1.34137,2.48822 5.33915,5.86775 8.07489,8.80897 -0.9953,3.48689 4.87239,6.97377 7.34081,10.46066 -1.62857,2.01473 4.43476,6.29177 6.69849,9.45129 -0.80429,2.81398 6.2091,6.82084 13.02994,17.52619 -1.87145,2.34152 4.64918,5.26091 7.79961,11.47001 -0.98744,2.01873 2.26993,4.03745 3.48689,6.05617 -0.0557,2.41635 -0.26022,4.8327 1.10111,7.24905 l -1.92696,1.65168 c 0.45443,-6.83428 -3.33017,-7.64395 -5.50561,-8.35017 -3.60865,-1.16302 -5.47672,5.63524 -11.83705,5.13857 1.7471,-2.94428 3.5209,-5.88284 1.92696,-9.54306 -4.02097,-7.55285 -11.50212,-7.98179 -19.63667,-7.06552 -1.68556,-3.45794 -1.9571,-6.7647 -3.40968,-10.78557 z"
       id="path2890"
       sodipodi:nodetypes="ccccccccccccccccccccccccccccccccccccsscccccscccccccccczcccccccccccccccccccccccccsccccccccccccccccccccccccccccccccccccccccccccccccccccccccccccc"
       inkscape:export-filename="/home/jared/clone/vim-debug/agyrtidae.png"
       inkscape:export-xdpi="88.398071"
       inkscape:export-ydpi="88.398071" />
    <text
       xml:space="preserve"
       style="font-size:54.97020721px;font-style:normal;font-variant:normal;font-weight:bold;font-stretch:normal;fill:#008000;fill-opacity:1;stroke:none;font-family:Courier 10 Pitch;-inkscape-font-specification:Andale Mono Bold"
       x="156.6212"
       y="566.60321"
       id="text2825"
       inkscape:export-filename="/home/jared/clone/vim-debug/agyrtidae.png"
       inkscape:export-xdpi="88.398071"
       inkscape:export-ydpi="88.398071"><tspan
         sodipodi:role="line"
         id="tspan2827"
         x="156.6212"
         y="566.60321">VIM</tspan></text>
    <path
       inkscape:transform-center-y="-34.431579"
       inkscape:transform-center-x="60.06627"
       sodipodi:nodetypes="csscc"
       id="path3635"
       d="m 139.17147,506.74037 c 23.09416,-23.12741 53.29236,-24.27393 73.98778,-19.67467 19.16843,4.25992 61.63197,23.22336 58.00498,43.40065 -1.01635,5.65416 -2.84878,10.82308 -6.69936,14.81444 -8.3157,3.41536 -86.16329,-24.13561 -125.2934,-38.54042 z"
       style="opacity:0.59832638;fill:url(#linearGradient3637);fill-opacity:1;stroke:none"
       inkscape:export-filename="/home/jared/clone/vim-debug/agyrtidae.png"
       inkscape:export-xdpi="88.398071"
       inkscape:export-ydpi="88.398071" />
    <path
       style="fill:url(#linearGradient3657);fill-opacity:1;stroke:none"
       d="m 174.90588,451.77637 c 31.32713,-9.31816 58.41845,4.07236 74.41712,17.98264 14.81823,12.88394 43.10265,49.79947 30.29405,65.80627 -3.58927,4.4855 -7.66451,8.15537 -12.95228,9.8279 -8.93805,-0.96273 -64.23109,-62.29775 -91.75889,-93.61681 z"
       id="path2829"
       sodipodi:nodetypes="csscc"
       inkscape:transform-center-x="36.461039"
       inkscape:transform-center-y="-52.634887"
       inkscape:export-filename="/home/jared/clone/vim-debug/agyrtidae.png"
       inkscape:export-xdpi="88.398071"
       inkscape:export-ydpi="88.398071" />
    <path
       inkscape:transform-center-y="31.205853"
       inkscape:transform-center-x="60.752161"
       style="opacity:0.59832638;fill:url(#linearGradient3641);fill-opacity:1;stroke:none"
       d="m 138.93155,597.62295 c 21.95018,20.58446 53.70543,23.34582 74.31795,18.38823 19.09164,-4.59179 61.21984,-24.28899 57.24338,-44.40033 -1.1143,-5.63567 -3.03611,-10.77203 -6.95534,-14.696 -8.90529,-3.98815 -86.07955,25.84459 -124.60599,40.7081 z"
       id="path3639"
       sodipodi:nodetypes="csscc"
       inkscape:export-filename="/home/jared/clone/vim-debug/agyrtidae.png"
       inkscape:export-xdpi="88.398071"
       inkscape:export-ydpi="88.398071" />
    <path
       sodipodi:nodetypes="csscc"
       id="path2831"
       d="m 170.20842,649.23086 c 28.77825,8.79447 58.4965,-2.73145 74.80999,-16.27116 15.10982,-12.54068 44.23346,-48.79779 31.79535,-65.09416 -3.48546,-4.56663 -7.47545,-8.329 -12.72348,-10.12237 -9.75133,0.34791 -65.85912,61.15723 -93.88186,91.48769 z"
       style="fill:url(#linearGradient3649);fill-opacity:1;stroke:none"
       inkscape:transform-center-x="40.578189"
       inkscape:transform-center-y="48.884217"
       inkscape:export-filename="/home/jared/clone/vim-debug/agyrtidae.png"
       inkscape:export-xdpi="88.398071"
       inkscape:export-ydpi="88.398071" />
    <path
       sodipodi:nodetypes="ccccccccccccccccccccccccccccccccccccsscccccscccccccccczcccccccccccccccccccccccccsccccccccccccccccccccccccccccccccccccccccccccccccccccccccccccc"
       id="path3621"
       d="m 294.8012,751.07348 c 0.53961,-2.6943 28.82999,0.46316 46.19756,-4.15259 l 0.3893,-2.07629 c 8.24737,-4.0953 15.4387,-11.09467 24.91554,-11.80893 l -0.77861,-1.68699 c -9.43064,1.20877 -18.01505,6.12415 -25.30484,11.9387 l -2.85491,-1.03815 c -9.88224,4.5527 -29.93325,1.68699 -44.89987,6.61819 -5.67495,-0.27221 -1.44081,8.71647 -3.11444,15.70198 -2.72514,1.28037 -5.45028,1.24591 -8.17541,1.55722 -0.61726,-7.30591 -6.40193,-12.67404 -15.31268,-16.8699 -0.007,-5.25743 6.43533,-14.70717 -0.12976,-15.70197 -4.75612,-2.91304 -33.35206,-0.52834 -50.09062,-0.77861 -8.61502,-7.19549 -16.0385,-10.26971 -22.5797,-8.82425 l 0.90838,1.94652 c 5.55211,-3.42661 12.88363,3.11155 20.11411,9.08379 l 1.03814,2.72514 c 16.12553,-2.37731 31.67729,-1.8857 47.49524,-2.72514 1.1518,3.07522 -2.52232,7.35691 -5.3205,11.41962 -15.77435,-3.84688 -31.29689,-7.81546 -54.50274,-3.89305 -8.69549,-9.21909 -10.55294,-23.1745 -15.57221,-22.70948 l -1.55722,0.64885 c -3.7879,-2.73624 -34.97204,24.96779 -55.54088,40.87705 l 0.3893,1.81676 c -14.15585,-0.15083 -25.96199,-5.00111 -45.548707,5.7098 l 1.16791,2.0763 c 14.697427,-9.18637 29.735207,-7.14116 44.770107,-5.19073 l 1.42745,1.03814 c 16.43521,-15.58651 50.64402,-46.42045 52.94551,-43.34265 l 8.04565,21.15225 c -20.40776,6.39861 -44.78858,22.58948 -49.312,42.04497 1.25754,1.8847 4.18097,1.02914 6.35865,1.68699 -1.38567,1.64078 -4.20395,0.67589 -5.70981,1.81676 -2.58455,10.91582 28.44404,38.28094 50.99899,42.95334 -2.68188,10.75293 -5.36376,20.11691 -8.04564,24.00716 l 0.77861,1.29769 c -0.86575,-0.76225 -1.26499,0.34648 -2.08881,-0.46601 -4.66558,-4.60147 -9.97253,-9.40683 -15.67646,-14.25869 -11.55363,-9.82772 -24.73601,-19.84627 -37.51608,-28.74772 l -1.94653,1.29768 c -16.10017,1.28006 -32.908537,8.04871 -47.754767,-0.38931 l -0.38931,1.55722 c 10.52069,8.02184 29.862317,3.91489 48.403617,0.90838 -0.56369,1.68695 4.86373,5.01534 8.17918,7.13245 36.84435,23.52739 42.98782,38.09352 52.03337,36.33997 4.97445,-1.94428 0.60558,-4.32561 14.92337,-26.73229 17.80666,3.71621 32.91115,-1.12445 48.79292,-3.50375 2.45688,3.93314 6.94824,8.60609 5.96935,11.28985 -0.5339,2.21907 -4.93349,-2.86291 -54.50274,-2.72513 l -0.12976,1.94653 c -6.82878,5.3864 -14.4699,9.59943 -24.39647,10.51124 l 1.81676,1.55722 c 12.17136,-0.0765 17.1054,-5.68748 23.74762,-9.99217 l 0.51907,1.29768 c 33.90297,-1.1034 54.11315,1.97966 57.61718,-1.55722 3.50404,-3.53687 -0.89039,-9.97418 -1.55722,-15.1829 10.15593,-3.40488 15.45036,-9.05352 16.61036,-16.61036 4.85122,0.15089 5.38402,2.22109 7.3968,3.63352 0.68226,5.73084 -1.44811,15.57244 3.24421,15.44244 10.69179,5.50782 29.35984,7.02058 40.48775,13.62568 l 1.42745,-0.77861 18.29734,19.98434 2.0763,-1.68699 -18.68665,-20.24387 0.90838,-1.81676 c -15.45743,-7.09712 -38.08869,-7.80358 -42.04497,-11.54939 2.65144,0.15797 -0.0508,-2.81962 3.37398,-9.60287 9.9139,-0.51443 20.84232,-0.21435 16.55905,-13.99406 5.66797,0.27755 7.11492,6.24445 10.64417,6.14792 3.44068,0.0166 4.87057,-2.20095 6.14793,-4.588 l 1.8352,0.4588 c -1.14666,2.16709 -1.9293,4.12617 -1.3764,5.32209 -1.78876,1.96661 -5.80302,4.37832 -4.31273,5.68913 -3.03129,3.34709 -10.07768,8.25561 -8.99249,10.00185 -8.41134,9.05367 -18.88033,14.6399 -16.14978,15.8745 -2.87617,2.56891 -8.48709,4.14337 -8.62545,7.70785 -3.12461,2.81271 -9.86588,4.66097 -9.35953,8.44193 -2.9975,2.50811 -9.78305,4.2045 -8.9925,7.52433 -2.65125,2.25431 -9.04706,4.09256 -7.70785,6.79025 -2.08762,1.74434 -5.71215,2.14386 -6.05617,5.41387 -2.62549,1.7306 -6.72028,5.0454 -4.86328,6.6985 1.81738,1.6178 6.27037,-1.6444 7.24905,-4.4963 3.26173,0.7797 5.09679,-3.424 5.68912,-5.78087 3.74574,1.70757 4.65809,-4.27543 6.88201,-6.69848 4.89209,0.84626 5.84148,-5.75481 8.71722,-8.71721 3.18101,2.3063 6.36203,-5.04852 9.54305,-8.16666 3.12876,0.8067 5.81417,-5.03692 8.71721,-7.61609 2.62171,1.40702 11.01122,-10.64417 16.51682,-15.96626 3.22534,0.25037 5.99669,-6.76314 8.9925,-10.18537 2.5344,-0.0261 3.13856,-3.5266 4.588,-5.50561 3.39127,-1.21073 3.38445,-4.41026 3.11985,-6.42321 4.50821,1.05325 6.59352,0.65275 8.71721,0.27528 0.47088,3.23816 -1.17766,7.1828 3.30336,9.08425 1.89314,1.43255 4.4705,2.08311 8.07489,1.55992 2.87038,0.0889 5.88269,1.17138 8.5337,-0.27528 -2.90574,-1.53823 -5.81148,-0.98246 -8.71721,-1.19288 -2.16777,-1.33857 -4.56635,-1.29229 -6.97377,-1.19288 -0.69174,-3.79275 -2.57777,-3.4563 -3.39513,-8.90073 l 2.38576,-1.10112 c 5.00228,3.41672 7.66871,1.2274 10.27714,-1.10112 l -0.9176,-1.65169 c -2.39013,1.45937 -4.6131,2.08301 -6.51497,1.10112 2.33056,-2.32339 2.46202,-5.08661 2.38576,-7.89137 -1.3802,2.5159 -2.99372,3.63189 -4.86329,3.21161 2.12265,-2.11709 2.3401,-4.67384 1.28465,-7.52433 3.40886,-1.20226 5.25799,0.9749 7.24905,2.84456 -0.62555,-1.33143 -0.38983,-1.92465 -2.56929,-4.58801 1.51838,0.0525 2.63645,0.90562 3.67041,1.92697 -0.84087,-5.90919 -5.42529,-6.37321 -8.71722,-8.71722 1.33329,-1.57145 3.11105,-2.88891 6.14793,-3.48688 0.98282,1.5253 2.17514,2.84109 4.12921,3.39512 0.0618,3.24792 0.0376,6.54745 1.28464,9.08426 2.21058,-3.95757 0.3766,-7.54745 0.18352,-11.2865 -1.10913,-1.4714 -2.93455,-2.62445 -6.23969,-3.11984 -2.50687,0.37448 -4.94995,1.13168 -6.97377,4.40448 -3.19742,-1.43091 -6.56047,-1.86804 -10.00185,-1.8352 1.63282,-3.70156 0.0386,-6.19299 -2.20224,-8.44193 -1.1435,-2.27043 -1.60942,-5.89601 -3.85393,-5.96441 -2.50811,-3.67041 -5.92989,-13.1274 -7.52433,-11.01122 -4.46566,-5.9644 -10.48226,-18.64956 -13.39698,-17.89322 -2.29168,-3.10397 -3.88297,-10.64371 -6.88201,-9.26777 -2.3542,-3.42835 -2.98305,-11.5398 -7.06553,-10.27713 -2.72179,-3.09052 -3.68898,-11.44487 -8.16665,-9.26778 -2.50782,-2.2337 -3.76154,-8.22971 -7.52433,-6.69849 -1.98813,-2.0799 -3.36939,-7.80107 -5.96441,-6.23969 -2.05243,-4.41517 -4.06244,-7.85464 -5.87264,-6.69849 -2.0019,3.29817 1.30397,6.55446 3.85392,8.90074 -1.14791,2.82957 3.85032,4.00806 6.14793,5.78088 -0.98559,3.39768 5.36115,4.04574 8.07489,6.05617 -1.34137,2.48822 5.33915,5.86775 8.07489,8.80897 -0.9953,3.48689 4.87239,6.97377 7.34081,10.46066 -1.62857,2.01473 4.43476,6.29177 6.69849,9.45129 -0.80429,2.81398 6.2091,6.82084 13.02994,17.52619 -1.87145,2.34152 4.64918,5.26091 7.79961,11.47001 -0.98744,2.01873 2.26993,4.03745 3.48689,6.05617 -0.0557,2.41635 -0.26022,4.8327 1.10111,7.24905 l -1.92696,1.65168 c 0.45443,-6.83428 -3.33017,-7.64395 -5.50561,-8.35017 -3.60865,-1.16302 -5.47672,5.63524 -11.83705,5.13857 1.7471,-2.94428 3.5209,-5.88284 1.92696,-9.54306 -4.02097,-7.55285 -11.50212,-7.98179 -19.63667,-7.06552 -1.68556,-3.45794 -1.9571,-6.7647 -3.40968,-10.78557 z"
       style="fill:#000000;stroke:#000000;stroke-width:0.36335158px;stroke-linecap:butt;stroke-linejoin:miter;stroke-opacity:1" />
    <text
       id="text3623"
       y="804.17169"
       x="170.76335"
       style="font-size:54.97020721px;font-style:normal;font-variant:normal;font-weight:bold;font-stretch:normal;fill:#008000;fill-opacity:1;stroke:none;font-family:Courier 10 Pitch;-inkscape-font-specification:Andale Mono Bold"
       xml:space="preserve"><tspan
         y="804.17169"
         x="170.76335"
         id="tspan3625"
         sodipodi:role="line">VIM</tspan></text>
    <path
       sodipodi:nodetypes="csscc"
       id="path3627"
       d="m 146.21958,785.61202 c 14.77058,-29.15556 43.11981,-39.623 64.22032,-41.67775 19.54363,-1.90314 65.79667,2.93639 68.61474,23.24246 0.78969,5.69025 0.65299,11.17266 -1.76777,16.16244 -6.844,5.82882 -89.3985,3.81427 -131.06729,2.27285 z"
       style="opacity:0.75732218;fill:url(#linearGradient3631);fill-opacity:1;stroke:none" />
    <path
       style="opacity:0.75732218;fill:url(#linearGradient3633);fill-opacity:1;stroke:none"
       d="m 146.47212,791.49485 c 14.01297,26.63018 43.11981,39.623 64.22032,41.67775 19.54363,1.90314 65.79667,-2.93639 68.61474,-23.24246 0.78969,-5.69025 0.65299,-11.17266 -1.76777,-16.16244 -7.11175,-6.68075 -89.79853,-3.72208 -131.06729,-2.27285 z"
       id="path3629"
       sodipodi:nodetypes="csscc" />
    <path
       sodipodi:nodetypes="ccccccccccccccccccccccccccccccccccccsscccccscccccccccczcccccccccccccccccccccccccsccccccccccccccccccccccccccccccccccccccccccccccccccccccccccccc"
       id="path3659"
       d="m 592.7962,514.7335 c 0.53961,-2.6943 28.82999,0.46316 46.19756,-4.15259 l 0.3893,-2.07629 c 8.24737,-4.0953 15.4387,-11.09467 24.91554,-11.80893 l -0.77861,-1.68699 c -9.43064,1.20877 -18.01505,6.12415 -25.30484,11.9387 l -2.85491,-1.03815 c -9.88224,4.5527 -29.93325,1.68699 -44.89987,6.61819 -5.67495,-0.27221 -1.44081,8.71647 -3.11444,15.70198 -2.72514,1.28037 -5.45028,1.24591 -8.17541,1.55722 -0.61726,-7.30591 -6.40193,-12.67404 -15.31268,-16.8699 -0.007,-5.25743 6.43533,-14.70717 -0.12976,-15.70197 -4.75612,-2.91304 -33.35206,-0.52834 -50.09062,-0.77861 -8.61502,-7.19549 -16.0385,-10.26971 -22.5797,-8.82425 l 0.90838,1.94652 c 5.55211,-3.42661 12.88363,3.11155 20.11411,9.08379 l 1.03814,2.72514 c 16.12553,-2.37731 31.67729,-1.8857 47.49524,-2.72514 1.1518,3.07522 -2.52232,7.35691 -5.3205,11.41962 -15.77435,-3.84688 -31.29689,-7.81546 -54.50274,-3.89305 -8.69549,-9.21909 -10.55294,-23.1745 -15.57221,-22.70948 l -1.55722,0.64885 c -3.7879,-2.73624 -34.97204,24.96779 -55.54088,40.87705 l 0.3893,1.81676 c -14.15585,-0.15083 -25.96199,-5.00111 -45.54871,5.7098 l 1.16791,2.0763 c 14.69743,-9.18637 29.73521,-7.14116 44.77011,-5.19073 l 1.42745,1.03814 c 16.43521,-15.58651 50.64402,-46.42045 52.94551,-43.34265 l 8.04565,21.15225 c -20.40776,6.39861 -44.78858,22.58948 -49.312,42.04497 1.25754,1.8847 4.18097,1.02914 6.35865,1.68699 -1.38567,1.64078 -4.20395,0.67589 -5.70981,1.81676 -2.58455,10.91582 28.44404,38.28094 50.99899,42.95334 -2.68188,10.75293 -5.36376,20.11691 -8.04564,24.00716 l 0.77861,1.29769 c -0.86575,-0.76225 -1.26499,0.34648 -2.08881,-0.46601 -4.66558,-4.60147 -9.97253,-9.40683 -15.67646,-14.25869 -11.55363,-9.82772 -24.73601,-19.84627 -37.51608,-28.74772 l -1.94653,1.29768 c -16.10017,1.28006 -32.90854,8.04871 -47.75477,-0.38931 l -0.38931,1.55722 c 10.52069,8.02184 29.86232,3.91489 48.40362,0.90838 -0.56369,1.68695 4.86373,5.01534 8.17918,7.13245 36.84435,23.52739 42.98782,38.09352 52.03337,36.33997 4.97445,-1.94428 0.60558,-4.32561 14.92337,-26.73229 17.80666,3.71621 32.91115,-1.12445 48.79292,-3.50375 2.45688,3.93314 6.94824,8.60609 5.96935,11.28985 -0.5339,2.21907 -4.93349,-2.86291 -54.50274,-2.72513 l -0.12976,1.94653 c -6.82878,5.3864 -14.4699,9.59943 -24.39647,10.51124 l 1.81676,1.55722 c 12.17136,-0.0765 17.1054,-5.68748 23.74762,-9.99217 l 0.51907,1.29768 c 33.90297,-1.1034 54.11315,1.97966 57.61718,-1.55722 3.50404,-3.53687 -0.89039,-9.97418 -1.55722,-15.1829 10.15593,-3.40488 15.45036,-9.05352 16.61036,-16.61036 4.85122,0.15089 5.38402,2.22109 7.3968,3.63352 0.68226,5.73084 -1.44811,15.57244 3.24421,15.44244 10.69179,5.50782 29.35984,7.02058 40.48775,13.62568 l 1.42745,-0.77861 18.29734,19.98434 2.0763,-1.68699 -18.68665,-20.24387 0.90838,-1.81676 c -15.45743,-7.09712 -38.08869,-7.80358 -42.04497,-11.54939 2.65144,0.15797 -0.0508,-2.81962 3.37398,-9.60287 9.9139,-0.51443 20.84232,-0.21435 16.55905,-13.99406 5.66797,0.27755 7.11492,6.24445 10.64417,6.14792 3.44068,0.0166 4.87057,-2.20095 6.14793,-4.588 l 1.8352,0.4588 c -1.14666,2.16709 -1.9293,4.12617 -1.3764,5.32209 -1.78876,1.96661 -5.80302,4.37832 -4.31273,5.68913 -3.03129,3.34709 -10.07768,8.25561 -8.99249,10.00185 -8.41134,9.05367 -18.88033,14.6399 -16.14978,15.8745 -2.87617,2.56891 -8.48709,4.14337 -8.62545,7.70785 -3.12461,2.81271 -9.86588,4.66097 -9.35953,8.44193 -2.9975,2.50811 -9.78305,4.2045 -8.9925,7.52433 -2.65125,2.25431 -9.04706,4.09256 -7.70785,6.79025 -2.08762,1.74434 -5.71215,2.14386 -6.05617,5.41385 -2.62549,1.73063 -6.72028,5.04543 -4.86328,6.69849 1.81738,1.61779 6.27037,-1.64439 7.24905,-4.49624 3.26173,0.77966 5.09679,-3.42401 5.68912,-5.7809 3.74574,1.7076 4.65809,-4.27543 6.88201,-6.69848 4.89209,0.84626 5.84148,-5.75481 8.71722,-8.71721 3.18101,2.3063 6.36203,-5.04852 9.54305,-8.16666 3.12876,0.8067 5.81417,-5.03692 8.71721,-7.61609 2.62171,1.40702 11.01122,-10.64417 16.51682,-15.96626 3.22534,0.25037 5.99669,-6.76314 8.9925,-10.18537 2.5344,-0.0261 3.13856,-3.5266 4.588,-5.50561 3.39127,-1.21073 3.38445,-4.41026 3.11985,-6.42321 4.50821,1.05325 6.59352,0.65275 8.71721,0.27528 0.47088,3.23816 -1.17766,7.1828 3.30336,9.08425 1.89314,1.43255 4.4705,2.08311 8.07489,1.55992 2.87038,0.0889 5.88269,1.17138 8.5337,-0.27528 -2.90574,-1.53823 -5.81148,-0.98246 -8.71721,-1.19288 -2.16777,-1.33857 -4.56635,-1.29229 -6.97377,-1.19288 -0.69174,-3.79275 -2.57777,-3.4563 -3.39513,-8.90073 l 2.38576,-1.10112 c 5.00228,3.41672 7.66871,1.2274 10.27714,-1.10112 l -0.9176,-1.65169 c -2.39013,1.45937 -4.6131,2.08301 -6.51497,1.10112 2.33056,-2.32339 2.46202,-5.08661 2.38576,-7.89137 -1.3802,2.5159 -2.99372,3.63189 -4.86329,3.21161 2.12265,-2.11709 2.3401,-4.67384 1.28465,-7.52433 3.40886,-1.20226 5.25799,0.9749 7.24905,2.84456 -0.62555,-1.33143 -0.38983,-1.92465 -2.56929,-4.58801 1.51838,0.0525 2.63645,0.90562 3.67041,1.92697 -0.84087,-5.90919 -5.42529,-6.37321 -8.71722,-8.71722 1.33329,-1.57145 3.11105,-2.88891 6.14793,-3.48688 0.98282,1.5253 2.17514,2.84109 4.12921,3.39512 0.0618,3.24792 0.0376,6.54745 1.28464,9.08426 2.21058,-3.95757 0.3766,-7.54745 0.18352,-11.2865 -1.10913,-1.4714 -2.93455,-2.62445 -6.23969,-3.11984 -2.50687,0.37448 -4.94995,1.13168 -6.97377,4.40448 -3.19742,-1.43091 -6.56047,-1.86804 -10.00185,-1.8352 1.63282,-3.70156 0.0386,-6.19299 -2.20224,-8.44193 -1.1435,-2.27043 -1.60942,-5.89601 -3.85393,-5.96441 -2.50811,-3.67041 -5.92989,-13.1274 -7.52433,-11.01122 -4.46566,-5.9644 -10.48226,-18.64956 -13.39698,-17.89322 -2.29168,-3.10397 -3.88297,-10.64371 -6.88201,-9.26777 -2.3542,-3.42835 -2.98305,-11.5398 -7.06553,-10.27713 -2.72179,-3.09052 -3.68898,-11.44487 -8.16665,-9.26778 -2.50782,-2.2337 -3.76154,-8.22971 -7.52433,-6.69849 -1.98813,-2.0799 -3.36939,-7.80107 -5.96441,-6.23969 -2.05243,-4.41517 -4.06244,-7.85464 -5.87264,-6.69849 -2.0019,3.29817 1.30397,6.55446 3.85392,8.90074 -1.14791,2.82957 3.85032,4.00806 6.14793,5.78088 -0.98559,3.39768 5.36115,4.04574 8.07489,6.05617 -1.34137,2.48822 5.33915,5.86775 8.07489,8.80897 -0.9953,3.48689 4.87239,6.97377 7.34081,10.46066 -1.62857,2.01473 4.43476,6.29177 6.69849,9.45129 -0.80429,2.81398 6.2091,6.82084 13.02994,17.52619 -1.87145,2.34152 4.64918,5.26091 7.79961,11.47001 -0.98744,2.01873 2.26993,4.03745 3.48689,6.05617 -0.0557,2.41635 -0.26022,4.8327 1.10111,7.24905 l -1.92696,1.65168 c 0.45443,-6.83428 -3.33017,-7.64395 -5.50561,-8.35017 -3.60865,-1.16302 -5.47672,5.63524 -11.83705,5.13857 1.7471,-2.94428 3.5209,-5.88284 1.92696,-9.54306 -4.02097,-7.55285 -11.50212,-7.98179 -19.63667,-7.06552 -1.68556,-3.45794 -1.9571,-6.7647 -3.40968,-10.78557 z"
       style="fill:#000000;stroke:#000000;stroke-width:0.36335158px;stroke-linecap:butt;stroke-linejoin:miter;stroke-opacity:1" />
    <text
       id="text3661"
       y="567.83173"
       x="468.75833"
       style="font-size:54.97020721px;font-style:normal;font-variant:normal;font-weight:bold;font-stretch:normal;fill:#008000;fill-opacity:1;stroke:none;font-family:Courier 10 Pitch;-inkscape-font-specification:Andale Mono Bold"
       xml:space="preserve"><tspan
         y="567.83173"
         x="468.75833"
         id="tspan3663"
         sodipodi:role="line">VIM</tspan></text>
    <path
       style="opacity:0.59832638;fill:url(#linearGradient3673);fill-opacity:1;stroke:none"
       d="m 451.3086,507.96888 c 23.09416,-23.12741 53.29236,-24.27393 73.98778,-19.67467 19.16843,4.25992 61.63197,23.22336 58.00498,43.40065 -1.01635,5.65416 -2.84878,10.82308 -6.69936,14.81444 -8.3157,3.41536 -86.16329,-24.13561 -125.2934,-38.54042 z"
       id="path3665"
       sodipodi:nodetypes="csscc"
       inkscape:transform-center-x="60.06627"
       inkscape:transform-center-y="-34.431579" />
    <path
       inkscape:transform-center-y="-52.634887"
       inkscape:transform-center-x="36.461039"
       sodipodi:nodetypes="csscc"
       id="path3667"
       d="m 487.04301,453.00488 c 31.32713,-9.31816 58.41845,4.07236 74.41712,17.98264 14.81823,12.88394 43.10265,49.79947 30.29405,65.80627 -3.58927,4.4855 -7.66451,8.15537 -12.95228,9.8279 -8.93805,-0.96273 -64.23109,-62.29775 -91.75889,-93.61681 z"
       style="fill:url(#linearGradient3675);fill-opacity:1;stroke:none" />
    <path
       sodipodi:nodetypes="csscc"
       id="path3669"
       d="m 451.06868,598.85146 c 21.95018,20.58446 53.70543,23.34582 74.31795,18.38823 19.09164,-4.59179 61.21984,-24.28899 57.24338,-44.40033 -1.1143,-5.63567 -3.03611,-10.77203 -6.95534,-14.696 -8.90529,-3.98815 -86.07955,25.84459 -124.60599,40.7081 z"
       style="opacity:0.59832638;fill:url(#linearGradient3677);fill-opacity:1;stroke:none"
       inkscape:transform-center-x="60.752161"
       inkscape:transform-center-y="31.205853" />
    <path
       inkscape:transform-center-y="51.277075"
       inkscape:transform-center-x="36.829457"
       style="fill:url(#linearGradient3679);fill-opacity:1;stroke:none"
       d="m 488.45996,656.33819 c 29.27936,6.94616 58.2043,-6.44672 73.62354,-20.99666 14.28154,-13.47638 41.04,-51.51254 27.59051,-66.98476 -3.76887,-4.33568 -7.9901,-7.83664 -13.34157,-9.29257 -9.70945,0.96746 -61.83572,65.2225 -87.87248,97.27399 z"
       id="path3671"
       sodipodi:nodetypes="csscc" />
  </g>
</svg>
